<svg height="512" viewBox="0 0 64 64" width="512" xmlns="http://www.w3.org/2000/svg"><g id="Icons"><g><g><path d="m40 13c0-1.631.366-3.175 1.006-4.569-2.651-1.537-5.721-2.431-9.006-2.431-9.941 0-18 8.059-18 18 0 9.941 8.059 18 18 18s18-8.059 18-18c0-.017-.003-.034-.003-.051-5.596-.509-9.997-5.222-9.997-10.949z" fill="#fab400"/></g><g><path d="m40.284 15.445c-2.167-2.127-5.132-3.445-8.401-3.445-6.617 0-12 5.383-12 12s5.383 12 12 12 12-5.383 12-12c0-1.031-.145-2.027-.391-2.983-1.573-1.474-2.713-3.399-3.208-5.572z" fill="#be7800"/></g><g><path d="m18 24c0-9.264 7.001-16.887 16-17.883-.657-.072-1.323-.117-2-.117-9.941 0-18 8.059-18 18 0 9.941 8.059 18 18 18 .677 0 1.343-.045 2-.117-8.999-.996-16-8.619-16-17.883z" fill="#dc9600"/></g><g><path d="m51 22c-4.971 0-9-4.029-9-9 0-4.971 4.029-9 9-9 4.971 0 9 4.029 9 9 0 4.971-4.029 9-9 9z" fill="#3cc8b4"/></g><g><path d="m44 13c0-4.632 3.501-8.443 8-8.941-.329-.037-.662-.059-1-.059-4.971 0-9 4.029-9 9s4.029 9 9 9c.338 0 .671-.022 1-.059-4.499-.498-8-4.309-8-8.941z" fill="#1eaa96"/></g><g><path d="m8 42h6v14h-6z" fill="#505050"/></g><g><path d="m8 42h2v14h-2z" fill="#3c3c3c"/></g><g><path d="m50.876 48.141-14.505 1.813c-.247.031-.496.046-.745.046h-5.626c-1.105 0-2-.895-2-2l8.392-1.678c.935-.187 1.608-1.008 1.608-1.962v-.36h-24v8l15.964 3.547c1.335.297 2.724.246 4.034-.147l17.289-5.187c.423-.126.713-.515.713-.957v-.123c0-.602-.527-1.067-1.124-.992z" fill="#f0c8a0"/></g><g><path d="m35.083 20.571v-2.285h-2.134v-2.286h-2.133v2.286h-2.133v6.857h4.266v2.286h-4.266v2.285h2.133v2.286h2.133v-2.286h2.134v-6.857h-4.267v-2.286z" fill="#fab400"/></g><g><path d="m52 14v-6h-2v6h-2l3 4 3-4z" fill="#f0f0f0"/></g></g></g></svg>