<svg height="511pt" viewBox="1 -13 511.99964 511" width="511pt" xmlns="http://www.w3.org/2000/svg"><path d="m77.820312 476.074219v-172.933594h-69.171874v172.933594zm0 0" fill="#1e81ce"/><path d="m500.824219 265.609375-12.277344-12.191406c-10.128906-10.113281-26.535156-10.113281-36.664063 0l-88.714843 88.804687v-30.4375c-.027344-9.539062-7.753907-17.265625-17.292969-17.292968h-224.820312l-43.234376 43.234374v121.054688l43.234376-43.234375h242.113281l137.65625-137.65625c3.371093-3.398437 3.371093-8.878906 0-12.28125zm0 0" fill="#ffdaaa"/><path d="m406.402344 294.492188v-34.585938h-138.351563v34.585938zm0 0" fill="#ffc477"/><path d="m415.046875 259.90625v-34.589844h-138.347656v34.589844zm0 0" fill="#ffb655"/><path d="m406.402344 190.730469h-138.351563v34.585937h138.351563zm0 0" fill="#ffc477"/><path d="m242.109375 259.90625h-138.347656v34.585938h138.347656zm0 0" fill="#ffb655"/><path d="m233.464844 225.316406h-138.351563v34.589844h138.351563zm0 0" fill="#ffc477"/><path d="m242.109375 225.316406v-34.585937h-138.347656v34.585937zm0 0" fill="#ffb655"/><path d="m250.757812 190.730469v-34.589844h-138.347656v34.589844zm0 0" fill="#ffc477"/><path d="m233.464844 121.554688h-138.351563v34.585937h138.351563zm0 0" fill="#ffb655"/><path d="m242.109375 121.554688v-34.585938h-138.347656v34.585938zm0 0" fill="#ffc477"/><path d="m458.28125 78.320312c0 38.207032-30.96875 69.175782-69.175781 69.175782-38.203125 0-69.171875-30.96875-69.171875-69.175782 0-38.203124 30.96875-69.171874 69.171875-69.171874 38.207031 0 69.175781 30.96875 69.175781 69.171874zm0 0" fill="#ffde55"/><g fill="#3e3d42"><path d="m506.921875 259.472656-12.261719-12.167968c-13.507812-13.496094-35.394531-13.496094-48.898437 0l-30.714844 30.757812v-9.511719c4.777344 0 8.648437-3.871093 8.648437-8.648437v-34.585938c0-4.773437-3.871093-8.644531-8.648437-8.644531v-25.941406c0-4.777344-3.871094-8.648438-8.644531-8.648438h-138.351563c-4.773437 0-8.644531 3.871094-8.644531 8.648438v34.585937c0 4.777344 3.871094 8.648438 8.644531 8.648438v17.292968c-4.773437 0-8.644531 3.871094-8.644531 8.644532v25.941406h-8.648438v-25.941406c0-4.773438-3.871093-8.644532-8.648437-8.644532v-17.292968c4.777344 0 8.648437-3.871094 8.648437-8.648438v-25.941406c4.777344 0 8.648438-3.871094 8.648438-8.644531v-34.589844c0-4.773437-3.871094-8.644531-8.648438-8.644531h-8.648437v-17.296875c4.777344 0 8.648437-3.871094 8.648437-8.644531v-34.585938c0-4.777344-3.871093-8.648438-8.648437-8.648438h-138.347656c-4.777344 0-8.648438 3.871094-8.648438 8.648438v25.9375c-4.773437 0-8.644531 3.871094-8.644531 8.648438v34.585937c0 4.777344 3.871094 8.648437 8.644531 8.648437h8.648438v17.292969c-4.777344 0-8.648438 3.871094-8.648438 8.648438v25.941406c-4.773437 0-8.644531 3.871094-8.644531 8.644531v34.585938c0 4.777344 3.871094 8.648437 8.644531 8.648437v25.941407c.015625 3.601562 2.277344 6.816406 5.664063 8.042968l-14.308594 14.316406v-13.710937c0-4.777344-3.871094-8.648437-8.648438-8.648437h-69.171874c-4.777344 0-8.648438 3.871093-8.648438 8.648437v172.933594c0 4.777343 3.871094 8.648437 8.648438 8.648437h69.171874c4.777344 0 8.648438-3.871094 8.648438-8.648437v-13.710938l38.167969-38.167969h238.53125c2.292969 0 4.492187-.914062 6.113281-2.535156l137.648438-137.648437c6.761718-6.78125 6.761718-17.757813 0-24.539063zm-136.699219 43.667969h19.75l-18.15625 18.15625v-9.511719c-.03125-2.953125-.570312-5.875-1.59375-8.644531zm-93.523437-103.761719h121.054687v17.292969h-121.054687zm8.644531 34.585938h121.058594v17.292968h-121.058594zm-8.644531 34.585937h121.054687v17.292969h-121.054687zm-51.882813-17.292969h-121.054687v-17.292968h121.054687zm0-103.761718h-121.054687v-17.292969h121.054687zm-112.40625-51.882813h121.054688v17.296875h-121.054688zm8.644532 69.175781h121.054687v17.292969h-121.054687zm-8.644532 34.589844h121.054688v17.292969h-121.054688zm121.054688 69.171875v17.292969h-121.054688v-17.292969zm-164.289063 198.878907h-51.882812v-155.644532h51.882812zm290.410157-60.527344h-238.53125c-2.292969 0-4.492188.910156-6.113282 2.53125l-28.472656 28.476562v-96.605468l38.167969-38.164063h221.238281c4.773438 0 8.644531 3.871094 8.644531 8.644531v25.941406h-112.410156v17.292969h121.058594c4.773437 0 8.644531-3.871093 8.644531-8.644531l86.183594-86.839844c6.753906-6.753906 17.699218-6.753906 24.453125 0l12.261719 12.214844zm0 0"/><path d="m389.105469 104.261719c-4.773438 0-8.644531-3.871094-8.644531-8.648438h-17.292969c.042969 10.957031 6.964843 20.699219 17.292969 24.351563v10.238281h17.292968v-10.238281c13.480469-4.75 20.5625-19.527344 15.8125-33.007813-3.652344-10.375-13.460937-17.304687-24.457031-17.28125-4.777344 0-8.648437-3.875-8.648437-8.648437 0-4.777344 3.871093-8.648438 8.648437-8.648438 4.773437 0 8.644531 3.871094 8.644531 8.648438h17.292969c-.042969-10.953125-6.964844-20.699219-17.292969-24.347656v-10.238282h-17.292968v10.238282c-13.480469 4.746093-20.5625 19.523437-15.8125 33.003906 3.652343 10.375 13.460937 17.304687 24.460937 17.285156 4.773437 0 8.644531 3.871094 8.644531 8.644531 0 4.777344-3.871094 8.648438-8.648437 8.648438zm0 0"/><path d="m389.105469 156.140625c42.980469 0 77.824219-34.839844 77.824219-77.820313 0-42.980468-34.84375-77.820312-77.824219-77.820312-42.976563 0-77.820313 34.84375-77.820313 77.820312.046875 42.960938 34.863282 77.773438 77.820313 77.820313zm0-138.347656c33.429687 0 60.53125 27.101562 60.53125 60.527343 0 33.429688-27.101563 60.527344-60.53125 60.527344-33.425781 0-60.527344-27.097656-60.527344-60.527344.039063-33.410156 27.117187-60.488281 60.527344-60.527343zm0 0"/></g></svg>